<svg width="433" height="349" viewBox="0 0 433 349" fill="none" xmlns="http://www.w3.org/2000/svg">
<path d="M188.732 129L235.108 196.655H142.355L188.732 129Z" fill="#E9CDD5"/>
<path d="M188.721 283.908L142.355 196.655H235.107L188.721 283.908Z" fill="#C4758A"/>
<path d="M235.106 196.656L188.72 283.909L274.936 274.132L235.106 196.656Z" fill="#E9CDD5"/>
<path d="M142.354 196.656L188.72 283.909L103.07 274.132L142.354 196.656Z" fill="#A72145"/>
<path d="M274.937 274.131L273.3 181.378L235.107 196.655L274.937 274.131Z" fill="#FAF5F5"/>
<path d="M103.072 274.131L103.618 181.378L142.355 196.655L103.072 274.131Z" fill="#D05576"/>
<path d="M188.732 129L235.109 196.655L273.301 181.378L188.732 129Z" fill="#F2E1E6"/>
<path d="M188.731 129L142.355 196.655L103.617 181.378L188.731 129Z" fill="#C4758A"/>
<path d="M274.937 274.131L188.952 322L188.721 283.908L274.937 274.131Z" fill="#C4758A"/>
<path d="M103.07 274.131L188.951 322L188.72 283.908L103.07 274.131Z" fill="#D05576"/>
<path fill-rule="evenodd" clip-rule="evenodd" d="M274.497 231.528C328.893 268.759 362.262 302.267 354.921 315.415C344.807 333.529 261.256 306.142 168.305 254.244C75.3529 202.347 8.1993 145.591 18.3129 127.477C26.1249 113.485 77.7531 126.642 143.685 157.272L130.429 165.46C97.6466 152.561 73.8513 148.285 69.5093 156.062C62.4722 168.666 109.198 208.157 173.875 244.268C238.552 280.378 296.687 299.435 303.724 286.831C307.456 280.147 296.069 265.903 274.904 248.611L274.497 231.528Z" fill="#414142"/>
<path d="M391.845 173L413.952 205.25H369.738L391.845 173Z" fill="#CCCED0"/>
<path d="M391.839 246.842L369.738 205.25H413.951L391.839 246.842Z" fill="#7D8185"/>
<path d="M413.952 205.25L391.84 246.842L432.938 242.181L413.952 205.25Z" fill="#CCCED0"/>
<path d="M369.737 205.25L391.839 246.842L351.012 242.181L369.737 205.25Z" fill="#333B43"/>
<path d="M432.937 242.182L432.157 197.968L413.951 205.25L432.937 242.182Z" fill="#F5F5F5"/>
<path d="M351.013 242.182L351.273 197.968L369.738 205.25L351.013 242.182Z" fill="#495560"/>
<path d="M391.844 173L413.951 205.25L432.156 197.968L391.844 173Z" fill="#E1E2E3"/>
<path d="M391.844 173L369.737 205.25L351.271 197.968L391.844 173Z" fill="#7D8185"/>
<path d="M432.938 242.182L391.95 265L391.84 246.842L432.938 242.182Z" fill="#7D8185"/>
<path d="M351.011 242.182L391.949 265L391.839 246.842L351.011 242.182Z" fill="#495560"/>
<path d="M303.254 0L334.286 45.2697H272.223L303.254 0Z" fill="#D8D3EA"/>
<path d="M303.248 103.652L272.224 45.2688H334.287L303.248 103.652Z" fill="#9D8DCB"/>
<path d="M334.287 45.2695L303.248 103.653L360.938 97.1106L334.287 45.2695Z" fill="#D8D3EA"/>
<path d="M272.223 45.2695L303.248 103.653L245.938 97.1106L272.223 45.2695Z" fill="#5D47A5"/>
<path d="M360.938 97.1113L359.843 35.048L334.287 45.2702L360.938 97.1113Z" fill="#F5F5F5"/>
<path d="M245.937 97.1113L246.302 35.048L272.223 45.2702L245.937 97.1113Z" fill="#826FBF"/>
<path d="M303.255 0L334.286 45.2697L359.842 35.0475L303.255 0Z" fill="#E7E4F3"/>
<path d="M303.255 0L272.223 45.2697L246.303 35.0475L303.255 0Z" fill="#9D8DCB"/>
<path d="M360.938 97.1113L303.403 129.142L303.248 103.654L360.938 97.1113Z" fill="#9D8DCB"/>
<path d="M245.937 97.1113L303.402 129.142L303.248 103.654L245.937 97.1113Z" fill="#826FBF"/>
</svg>
