<svg width="540" height="371" viewBox="0 0 540 371" fill="none" xmlns="http://www.w3.org/2000/svg">
<path d="M247.435 55.9893L316.395 156.59H178.475L247.435 55.9893Z" fill="#E9CDD5"/>
<path d="M247.425 286.334L178.48 156.591H316.4L247.425 286.334Z" fill="#C4758A"/>
<path d="M316.393 156.592L247.417 286.334L375.617 271.796L316.393 156.592Z" fill="#E9CDD5"/>
<path d="M178.476 156.592L247.421 286.334L120.062 271.796L178.476 156.592Z" fill="#A72145"/>
<path d="M375.625 271.791L373.191 133.871L316.4 156.587L375.625 271.791Z" fill="#FAF5F5"/>
<path d="M120.061 271.791L120.873 133.871L178.475 156.587L120.061 271.791Z" fill="#D05576"/>
<path d="M247.443 55.9893L316.403 156.59L373.193 133.874L247.443 55.9893Z" fill="#F2E1E6"/>
<path d="M247.449 55.9893L178.489 156.59L120.887 133.874L247.449 55.9893Z" fill="#C4758A"/>
<path d="M375.629 271.791L247.771 342.971L247.428 286.33L375.629 271.791Z" fill="#C4758A"/>
<path d="M120.064 271.791L247.766 342.971L247.422 286.33L120.064 271.791Z" fill="#D05576"/>
<path fill-rule="evenodd" clip-rule="evenodd" d="M515.668 75.4982C485.662 114.356 405.008 174.752 303.776 231.273C165.56 308.443 41.322 349.166 26.2835 322.232C16.5587 304.814 54.8786 263.369 120.548 215.387L120.548 237.835C80.9542 268.051 54.8211 293.942 60.1282 303.447C70.5922 322.188 199.321 270.133 295.493 216.437C373.465 172.903 457.983 112.723 481.603 81.5166L515.668 75.4982ZM469.131 39.303C430.625 48.212 376.423 69.0622 315.902 98.7793L333.841 109.637C383.565 86.4132 431.212 68.2703 460.054 62.6778L469.131 39.303Z" fill="#414142"/>
<path d="M491.469 6.46536L539.144 62.7161L465.938 75.6496L491.469 6.46536Z" fill="#D05576"/>
</svg>
