<svg width="319" height="308" viewBox="0 0 319 308" fill="none" xmlns="http://www.w3.org/2000/svg">
<path d="M161 0V142L234.5 124L161 0Z" fill="#E9CDD5"/>
<path d="M161 0V142L87 123.5L161 0Z" fill="#D05576"/>
<path d="M161 220V142L234.5 124L161 220Z" fill="#C4758A"/>
<path d="M161 220V142L87 123.5L161 220Z" fill="#A72145"/>
<path d="M41.1068 9L63.2136 41.25H19L41.1068 9Z" fill="#CCCED0"/>
<path d="M40.8276 82.8418L18.7258 41.2496H62.9395L40.8276 82.8418Z" fill="#7D8185"/>
<path d="M62.9399 41.25L40.8281 82.842L81.9258 78.1814L62.9399 41.25Z" fill="#CCCED0"/>
<path d="M18.7258 41.25L40.8277 82.842L0 78.1814L18.7258 41.25Z" fill="#333B43"/>
<path d="M81.9253 78.1816L81.1451 33.968L62.9395 41.2502L81.9253 78.1816Z" fill="#F5F5F5"/>
<path d="M0.000782013 78.1816L0.260862 33.968L18.7266 41.2502L0.000782013 78.1816Z" fill="#495560"/>
<path d="M40.8321 9L62.9389 41.25L81.1445 33.9677L40.8321 9Z" fill="#E1E2E3"/>
<path d="M40.8323 9L18.7255 41.25L0.259766 33.9677L40.8323 9Z" fill="#7D8185"/>
<path d="M81.926 78.1816L40.9382 101L40.8281 82.8423L81.926 78.1816Z" fill="#7D8185"/>
<path d="M-0.000427246 78.1816L40.9375 101L40.8275 82.8423L-0.000427246 78.1816Z" fill="#495560"/>
<path d="M264.19 186L293.332 228.514H235.047L264.19 186Z" fill="#CCCED0"/>
<path d="M263.821 283.344L234.685 228.514H292.971L263.821 283.344Z" fill="#7D8185"/>
<path d="M292.972 228.514L263.822 283.343L318 277.199L292.972 228.514Z" fill="#CCCED0"/>
<path d="M234.686 228.514L263.822 283.343L210 277.199L234.686 228.514Z" fill="#333B43"/>
<path d="M317.999 277.199L316.971 218.914L292.971 228.514L317.999 277.199Z" fill="#F5F5F5"/>
<path d="M210.002 277.199L210.345 218.914L234.688 228.514L210.002 277.199Z" fill="#495560"/>
<path d="M263.828 186L292.971 228.514L316.971 218.914L263.828 186Z" fill="#E1E2E3"/>
<path d="M263.829 186L234.686 228.514L210.344 218.914L263.829 186Z" fill="#7D8185"/>
<path d="M318 277.199L263.967 307.28L263.822 283.343L318 277.199Z" fill="#7D8185"/>
<path d="M210 277.199L263.967 307.28L263.822 283.343L210 277.199Z" fill="#495560"/>
<path d="M293.147 78L306.671 97.7288H279.623L293.147 78Z" fill="#CCCED0"/>
<path d="M292.975 123.172L279.454 97.728H306.502L292.975 123.172Z" fill="#7D8185"/>
<path d="M306.503 97.7285L292.976 123.172L318.117 120.321L306.503 97.7285Z" fill="#CCCED0"/>
<path d="M279.455 97.7285L292.976 123.172L268 120.321L279.455 97.7285Z" fill="#333B43"/>
<path d="M318.116 120.322L317.639 93.2747L306.502 97.7296L318.116 120.322Z" fill="#F5F5F5"/>
<path d="M268.002 120.322L268.161 93.2747L279.457 97.7296L268.002 120.322Z" fill="#495560"/>
<path d="M292.98 78L306.503 97.7288L317.641 93.2739L292.98 78Z" fill="#E1E2E3"/>
<path d="M292.98 78L279.456 97.7288L268.16 93.2739L292.98 78Z" fill="#7D8185"/>
<path d="M318.118 120.322L293.044 134.281L292.977 123.173L318.118 120.322Z" fill="#7D8185"/>
<path d="M267.999 120.322L293.043 134.281L292.976 123.173L267.999 120.322Z" fill="#495560"/>
<path d="M40.1256 140.477L50.4113 155.482H29.8398L40.1256 140.477Z" fill="#CCCED0"/>
<path d="M39.9951 174.832L29.7117 155.48H50.2832L39.9951 174.832Z" fill="#7D8185"/>
<path d="M50.2836 155.48L39.9955 174.832L59.1172 172.664L50.2836 155.48Z" fill="#CCCED0"/>
<path d="M29.7126 155.48L39.9961 174.832L21 172.664L29.7126 155.48Z" fill="#333B43"/>
<path d="M59.1168 172.666L58.7538 152.095L50.2832 155.483L59.1168 172.666Z" fill="#F5F5F5"/>
<path d="M21.0022 172.666L21.1232 152.095L29.7148 155.483L21.0022 172.666Z" fill="#495560"/>
<path d="M39.9995 140.477L50.2853 155.482L58.7559 152.093L39.9995 140.477Z" fill="#E1E2E3"/>
<path d="M40.0004 140.477L29.7147 155.482L21.123 152.093L40.0004 140.477Z" fill="#7D8185"/>
<path d="M59.1178 172.666L40.0473 183.283L39.9961 174.835L59.1178 172.666Z" fill="#7D8185"/>
<path d="M20.9995 172.666L40.0469 183.283L39.9957 174.835L20.9995 172.666Z" fill="#495560"/>
</svg>
