<svg width="433" height="314" viewBox="0 0 433 314" fill="none" xmlns="http://www.w3.org/2000/svg">
<path d="M213.286 313.998L185.597 289.844H240.262L213.286 313.998Z" fill="#333B43"/>
<path d="M291.106 227.555L273.308 159.36L414.418 147.465L291.106 227.555Z" fill="#D8D3EA"/>
<path d="M17.7969 245.354L-0.000732422 177.158L141.109 165.264L17.7969 245.354Z" fill="#D8D3EA"/>
<path d="M414.42 147.463L432.218 215.658L291.107 227.552L414.42 147.463Z" fill="#C4758A"/>
<path d="M141.111 165.262L158.909 233.457L17.7988 245.351L141.111 165.262Z" fill="#C4758A"/>
<path d="M212.85 86.4375L268.227 188.139L158.898 188.138L212.85 86.4375Z" fill="#C4758A"/>
<path d="M212.927 289.84L268.227 188.139L158.898 188.139L212.927 289.84Z" fill="#A72145"/>
<path d="M212.932 86.4375L249.163 110.591L268.232 188.139L212.932 86.4375Z" fill="#E9CDD5"/>
<path d="M319.082 29.2338L212.296 81.3555L109.324 29.2338L319.082 29.2338Z" fill="#E9CDD5"/>
<path d="M285.394 66.1049L319.082 29.2383L212.296 81.36L285.394 66.1049Z" fill="#D05576"/>
<path d="M142.379 66.1049L109.326 29.2383L212.298 81.36L142.379 66.1049Z" fill="#D05576"/>
<path d="M212.932 289.84L249.163 265.686L268.232 188.139L212.932 289.84Z" fill="#D05576"/>
<path d="M212.932 86.4375L176.701 110.591L158.903 188.139L212.932 86.4375Z" fill="#E9CDD5"/>
<path d="M212.932 289.84L176.701 265.686L158.903 188.139L212.932 289.84Z" fill="#D05576"/>
<path d="M213.142 41.9512L197.045 -0.000484467H228.826L213.142 41.9512Z" fill="#333B43"/>
</svg>
